<svg xmlns="http://www.w3.org/2000/svg" width="52.905" height="60" viewBox="0 0 1771 2008.51">
  <title>HTML5</title>
  <path d="M161.17,1807.73,0,0H1771L1609.65,1807.44,884.41,2008.51Z" transform="translate(0)" fill="#e44d26"/>
  <path d="M885.5,1854.82l586-162.47L1609.41,147.81H885.5Z" transform="translate(0)" fill="#f16529"/>
  <path d="M885.5,818.27H592.13l-20.27-227H885.5V369.53H329.55L334.86,429l54.49,611H885.5Zm0,575.8-1,.27-246.92-66.68-15.79-176.82H399.26L430.33,1499,884.49,1625l1-.29Z" transform="translate(0)" fill="#ebebeb"/>
  <path d="M884.74,818.27V1040h273L1132,1327.53l-247.27,66.73v230.66l454.51-126,3.33-37.47,52.11-583.68,5.41-59.54H884.74Zm0-448.74V591.24h535.53l4.44-49.84L1434.82,429l5.3-59.48Z" transform="translate(0)" fill="#fff"/>
</svg>
