<svg xmlns="http://www.w3.org/2000/svg" width="48.661" height="60" viewBox="0 0 315 388.4">
  <title>SQL</title>
  <g>
    <ellipse cx="157.5" cy="57.5" rx="157.5" ry="57.5" fill="#377ecc"/>
    <path d="M315,104.47c-30.49,22.25-89.59,37.33-157.5,37.33S30.5,126.72,0,104.47v44C0,180.26,70.52,206,157.5,206S315,180.26,315,148.5Z" fill="#377ecc"/>
    <path d="M315,195.87c-30.49,22.25-89.59,37.33-157.5,37.33S30.5,218.12,0,195.87v44c0,31.76,70.52,57.5,157.5,57.5S315,271.66,315,239.9Z" fill="#377ecc"/>
    <path d="M315,286.87c-30.49,22.25-89.59,37.33-157.5,37.33S30.5,309.12,0,286.87v44c0,31.76,70.52,57.5,157.5,57.5S315,362.66,315,330.9Z" fill="#377ecc"/>
  </g>
</svg>
