<svg xmlns="http://www.w3.org/2000/svg" width="73.84" height="60" viewBox="0 0 73.84 60">
  <title>Twitter</title>
  <path d="M23.22,60c27.87,0,43.11-23.09,43.11-43.11,0-.65,0-1.3,0-2a30.67,30.67,0,0,0,7.56-7.85,30.23,30.23,0,0,1-8.7,2.39A15.23,15.23,0,0,0,71.8,1.1a30.49,30.49,0,0,1-9.62,3.68A15.17,15.17,0,0,0,36.36,18.59,43,43,0,0,1,5.14,2.76,15.17,15.17,0,0,0,9.83,23,15,15,0,0,1,3,21.09v.19A15.15,15.15,0,0,0,15.11,36.13a15.06,15.06,0,0,1-6.84.26A15.17,15.17,0,0,0,22.42,46.92,30.39,30.39,0,0,1,3.61,53.41,29,29,0,0,1,0,53.19,42.88,42.88,0,0,0,23.22,60" fill="#1da1f2"/>
</svg>
